<?xml version="1.0" encoding="UTF-8"?>
<svg xmlns="http://www.w3.org/2000/svg" width="1024" height="1024" viewBox="0 0 1024 1024" fill="none">
  <rect width="1024" height="1024" fill="#0f180e"/>
  <g stroke="#5ca85c" stroke-opacity="0.20">
    <line x1="0" y1="0" x2="0" y2="1024"/><line x1="0" y1="0" x2="1024" y2="0"/><line x1="72" y1="0" x2="72" y2="1024"/><line x1="0" y1="72" x2="1024" y2="72"/><line x1="144" y1="0" x2="144" y2="1024"/><line x1="0" y1="144" x2="1024" y2="144"/><line x1="216" y1="0" x2="216" y2="1024"/><line x1="0" y1="216" x2="1024" y2="216"/><line x1="288" y1="0" x2="288" y2="1024"/><line x1="0" y1="288" x2="1024" y2="288"/><line x1="360" y1="0" x2="360" y2="1024"/><line x1="0" y1="360" x2="1024" y2="360"/><line x1="432" y1="0" x2="432" y2="1024"/><line x1="0" y1="432" x2="1024" y2="432"/><line x1="504" y1="0" x2="504" y2="1024"/><line x1="0" y1="504" x2="1024" y2="504"/><line x1="576" y1="0" x2="576" y2="1024"/><line x1="0" y1="576" x2="1024" y2="576"/><line x1="648" y1="0" x2="648" y2="1024"/><line x1="0" y1="648" x2="1024" y2="648"/><line x1="720" y1="0" x2="720" y2="1024"/><line x1="0" y1="720" x2="1024" y2="720"/><line x1="792" y1="0" x2="792" y2="1024"/><line x1="0" y1="792" x2="1024" y2="792"/><line x1="864" y1="0" x2="864" y2="1024"/><line x1="0" y1="864" x2="1024" y2="864"/><line x1="936" y1="0" x2="936" y2="1024"/><line x1="0" y1="936" x2="1024" y2="936"/><line x1="1008" y1="0" x2="1008" y2="1024"/><line x1="0" y1="1008" x2="1024" y2="1008"/><line x1="1080" y1="0" x2="1080" y2="1024"/><line x1="0" y1="1080" x2="1024" y2="1080"/>
  </g>
  <rect x="24" y="24" width="976" height="976" stroke="#d8e8d0" stroke-opacity="0.18" stroke-width="3"/>
  <text x="48" y="84" fill="#d8e8d0" fill-opacity="0.70" font-size="32" font-family="Arial, Helvetica, sans-serif">FANTASY TEXTURE 02</text>
</svg>
