<svg xmlns="http://www.w3.org/2000/svg" viewBox="0 0 512 512" fill="none">
  <!-- 12-tooth mechanical gear — Grimdark Future category icon -->
  <!-- Original artwork by The Dexarium -->
  <path
    fill="currentColor"
    fill-rule="evenodd"
    d="M 237.71,81.96 L 222.37,43.65 L 289.63,43.65 L 274.29,81.96 L 327.18,96.13 L 333.05,55.28 L 391.30,88.91 L 358.86,114.42 L 397.58,153.14 L 423.09,120.70 L 456.72,178.95 L 415.87,184.82 L 430.04,237.71 L 468.35,222.37 L 468.35,289.63 L 430.04,274.29 L 415.87,327.18 L 456.72,333.05 L 423.09,391.30 L 397.58,358.86 L 358.86,397.58 L 391.30,423.09 L 333.05,456.72 L 327.18,415.87 L 274.29,430.04 L 289.63,468.35 L 222.37,468.35 L 237.71,430.04 L 184.82,415.87 L 178.95,456.72 L 120.70,423.09 L 153.14,397.58 L 114.42,358.86 L 88.91,391.30 L 55.28,333.05 L 96.13,327.18 L 81.96,274.29 L 43.65,289.63 L 43.65,222.37 L 81.96,237.71 L 96.13,184.82 L 55.28,178.95 L 88.91,120.70 L 114.42,153.14 L 153.14,114.42 L 120.70,88.91 L 178.95,55.28 L 184.82,96.13 Z
    M 328.00,256.00 A 72,72 0 1,0 184.00,256.00 A 72,72 0 1,0 328.00,256.00 Z"
  />
  <!-- Inner cross detail -->
  <rect x="246" y="200" width="20" height="112" rx="4" fill="currentColor" opacity="0.45"/>
  <rect x="200" y="246" width="112" height="20" rx="4" fill="currentColor" opacity="0.45"/>
</svg>
